<?xml version="1.0" encoding="utf-8"?>
<!-- Generator: Adobe Illustrator 24.0.1, SVG Export Plug-In . SVG Version: 6.00 Build 0)  -->
<svg version="1.1" id="OBJECTS" xmlns="http://www.w3.org/2000/svg" xmlns:xlink="http://www.w3.org/1999/xlink" x="0px" y="0px"
	 viewBox="0 0 750 500" style="enable-background:new 0 0 750 500;" xml:space="preserve">
<style type="text/css">
	.st0{fill:#6E6E6E;}
	.st1{clip-path:url(#SVGID_2_);}
	.st2{fill:#2B2622;}
	.st3{fill:#FDC2AB;}
	.st4{fill:#111010;}
	.st5{fill:none;stroke:#D67374;stroke-width:1.238;stroke-linecap:round;stroke-miterlimit:10;}
	.st6{fill:#D67374;}
	.st7{fill:#222C44;}
	.st8{fill:#FCA2B6;}
	.st9{fill:#F50057;}
	.st10{fill:#352938;}
	.st11{fill:none;stroke:#FC7A99;stroke-width:1.2505;stroke-linecap:round;stroke-linejoin:round;stroke-miterlimit:10;}
	.st12{fill:none;stroke:#D67374;stroke-width:0.5;stroke-linecap:round;stroke-miterlimit:10;}
</style>
<ellipse class="st0" cx="375" cy="254.2" rx="151.3" ry="141.9"/>
<g>
	<defs>
		<path id="SVGID_1_" d="M526.3,254.2c0,78.4-67.7,141.9-151.3,141.9c-83.6,0-151.3-63.5-151.3-141.9c0-78.4,67.7-141.9,151.3-141.9
			c12,0,32.5-17.8,43.8-15.3c22.3,4.9,33.8,33.6,51.1,46.6C504.3,169.6,526.3,209.5,526.3,254.2z"/>
	</defs>
	<clipPath id="SVGID_2_">
		<use xlink:href="#SVGID_1_"  style="overflow:visible;"/>
	</clipPath>
	<g class="st1">
		<path class="st2" d="M429.8,196.9c0,0,21-15.3,17.5-55.4l-30.8,5.1L429.8,196.9z"/>
		<g>
			<g>
				<g>
					<g>
						<path class="st3" d="M429.5,165.4l3.7,63.7c0.9,11.8-8.1,22.1-20.4,23.7l0,0c-14.2,1.8-26.8-8.9-26.6-22.5l0.7-59.6
							L429.5,165.4z"/>
					</g>
				</g>
				<g>
					<g>
						<path class="st4" d="M386.4,210.9l-0.1-8.8c0,0,19,3.4,33.9-13C420.2,189.2,412.6,206.7,386.4,210.9z"/>
					</g>
				</g>
			</g>
			<g>
				<g>
					<g>
						<path class="st3" d="M422,118.1c2.5,1.4,4.9,3.2,7,5.4c19,19.8,3.6,55-15.7,70.1c-10.7,8.3-25.7,11.6-38.3,6.2
							c-18.3-7.9-22.8-28.5-17.7-46.2c3.8-13.2,12.5-25.4,24.7-32.5C394.1,113.9,410,111.6,422,118.1z"/>
					</g>
				</g>
				<g>
					<g>
						<path class="st3" d="M420.9,183.1c3.3,3.6,9.4,5.3,14.3,4c4.9-1.3,9.1-5.3,10.7-10.2c1.4-4.4,0.6-9.5-2.7-12.4
							c-3.3-2.9-9.4-3.1-12.6,0.2L420.9,183.1z"/>
					</g>
				</g>
				<path class="st5" d="M431.2,177c2.7,0.4,5.3-0.8,5.6-2.8c0.3-1.5-0.8-3-2.4-3.8"/>
				<g>
					<path class="st6" d="M373.1,161.3c-0.5-0.6-1-1.3-1.4-2c-0.4-0.7-0.7-1.4-1.1-2.1l-0.4-1l1.1,0c1,0,2-0.4,3-0.8
						c1-0.5,2-1,3.1-1.6c-0.7,1-1.6,1.8-2.6,2.5c-1,0.7-2.1,1.3-3.5,1.4l0.6-1c0.4,0.7,0.7,1.4,1,2.2c0.3,0.7,0.5,1.5,0.7,2.3
						L373.1,161.3z"/>
				</g>
				<g>
					<path class="st6" d="M366.9,165.2c1,1.3,2.1,2.4,3.4,3.2c1.3,0.8,2.8,1.1,4.2,1.1l1.1-0.1l1.1-0.3c0.7-0.1,1.4-0.5,2.2-0.7
						c0.7-0.4,1.4-0.7,2.1-1c0.7-0.4,1.4-0.8,2.1-1.2c-0.5,0.6-1.1,1.2-1.7,1.7c-0.6,0.5-1.3,1-2,1.4c-1.5,0.8-3.1,1.5-4.8,1.5
						c-1.7,0.1-3.5-0.5-4.9-1.6C368.4,168.2,367.4,166.7,366.9,165.2z"/>
				</g>
				<g>
					<path class="st7" d="M392.5,148c-0.5,0.9-0.9,1.9-1.3,2.9c-0.4,1-0.7,2-0.8,3c-0.1,1-0.1,2,0.4,2.8c0.4,0.8,1.3,1.3,2.2,1.4
						c0.9,0.2,1.9,0.1,2.8-0.4c0.9-0.4,1.7-1,2.5-1.7c1.5-1.4,2.8-3.1,3.9-4.8l0,0c0.1-0.2,0.3-0.2,0.5-0.1c0.1,0.1,0.2,0.3,0.1,0.4
						c-1,1.9-2.2,3.7-3.8,5.2c-0.8,0.8-1.7,1.4-2.7,1.9c-1,0.5-2.3,0.7-3.4,0.5c-1.1-0.2-2.3-0.8-2.9-2c-0.6-1.1-0.6-2.3-0.4-3.4
						c0.4-2.2,1.3-4.2,2.5-6c0.1-0.1,0.3-0.2,0.4-0.1C392.6,147.7,392.6,147.9,392.5,148L392.5,148z"/>
				</g>
				<g>
					<path class="st7" d="M367.6,137.7c-0.8,1.6-1.4,3.2-1.7,4.9c-0.1,0.8-0.2,1.7,0.1,2.4c0.3,0.7,0.9,1.1,1.6,1.2
						c0.7,0.1,1.5,0,2.2-0.4c0.7-0.4,1.4-0.9,2-1.5c1.2-1.2,2.2-2.6,3.1-4.1l0,0c0.1-0.2,0.3-0.2,0.5-0.1c0.1,0.1,0.2,0.3,0.1,0.4
						c-0.8,1.6-1.8,3.1-3,4.5c-0.6,0.7-1.3,1.3-2.2,1.8c-0.8,0.5-1.9,0.7-2.9,0.5c-0.5-0.1-1-0.3-1.4-0.6c-0.2-0.2-0.4-0.3-0.6-0.6
						c-0.1-0.2-0.3-0.5-0.4-0.7c-0.4-1-0.3-2-0.1-2.9c0.4-1.8,1.2-3.5,2.1-5c0.1-0.1,0.3-0.2,0.4-0.1
						C367.6,137.4,367.6,137.6,367.6,137.7L367.6,137.7z"/>
				</g>
			</g>
		</g>
		<path class="st2" d="M430.8,115.2c-10.2-6-22.8-7.9-34.9-6c-10.4,1.7-24,6.6-25.2,13.5c-2.1,11.9,34.3,10.8,41.3,9.6
			c7-1.2,12.3,2.2,8.8,10.2c-2.5,5.7-7.7,28.7,12.8,20.4C450.3,156.2,454.6,129.2,430.8,115.2z"/>
	</g>
	<g class="st1">
		<g>
			<g>
				<g>
					<g>
						<polygon class="st3" points="318.2,288.5 304.4,244.3 276.9,254.1 289.5,298 						"/>
					</g>
					<g>
						<polygon class="st8" points="317,276.8 310,260 279.8,267.2 285.3,287.5 						"/>
						<g>
							<path class="st9" d="M353.9,358.5c0,0-31.3-91.4-39.1-89.5l-33.4,7.6c-8,1.9,9.1,97.3,9.1,97.3c3.1,13.9,17.2,23.2,32.3,21.3
								l0,0C340,393.1,358.4,374.3,353.9,358.5z"/>
						</g>
					</g>
				</g>
				<g>
					<path class="st9" d="M344.8,246.6c0,0-31.1,56.4,4.9,165l46-38.3L344.8,246.6z"/>
					<path class="st10" d="M488.4,422.9c0,0-56.7,42.7-110.8,5.7l-3-105.2L367,252l10.6-16.7l31.6-7.6l37.8,3.5l5,62.8L488.4,422.9z
						"/>
					<path class="st3" d="M428.4,230.5c0,0-24.3,22.9-49.9,0l8.7-20.1l41.7,3.1L428.4,230.5z"/>
					<g>
						<path class="st9" d="M379.9,281.8c2.8,41.6,6.9,118.1,2.8,168.3c-0.3,3.1-4.5,4-6.2,1.4l-0.2-0.2c-4.2-6.6-6.7-14-7.1-21.6
							l-6.6-112.2l-18.4-59.3c-2-6.6,0.1-13.7,5.5-18.4c5.7-4.9,21.5-16.8,34.8-22.3l-0.7,3.8C379.8,241.3,378.5,261.6,379.9,281.8z
							"/>
						<path class="st11" d="M332.8,298c0,0-1.2,27.6,9.4,88.3"/>
					</g>
				</g>
				<g>
					<path class="st9" d="M423.5,230.4c-6.9,16.6-9.8,34.3-9,52c1.4,33.2,8.3,102.9,39.6,165.9c2.2,4.5,7.6,6.8,12.6,5.6
						c11.3-2.8,32.8-11,52.7-42.5l-10.1-160.4c-0.4-6.3-4-12-9.8-15.3c-9.8-5.7-46.4-16.5-67.2-21.9
						C432.4,213.6,428.2,218.9,423.5,230.4z"/>
					<path class="st9" d="M499.8,235.6c0,0-45.7,40.2-11.6,122.5l5.7,29.1c3.3,16.8,21,27.6,38.8,23.6l0,0
						c16.1-3.6,26.5-18.2,24-33.5C549.4,332.7,531.6,247.8,499.8,235.6z"/>
					<path class="st11" d="M490.8,246.6c0,0-24.2,21.2-11.2,85.8c13.1,64.5,22.3,101.1,22.3,101.1"/>
				</g>
			</g>
		</g>
		<g>
			<path class="st3" d="M304.8,246.2c0.6-7,3.5-21.9,9.4-27.3c-0.9-1.3-3.5-2.6-5.5-1.7c-7.9,3.4-11.8,8.7-11.8,8.7
				s-20.2-30.7-23-28.2c-2.8,2.5,8.1,18.3,8.1,18.3s-16.1-21.7-18-18.4c-0.7,1.3,3.2,2.8,9.4,18.1c0,0-15.9-18.2-16.2-13.8
				c-0.4,5.6,8.5,17.1,8.5,17.1s-12.5-10.5-12.6-6.9c0,2.6,18.1,30,24.2,42.8C281.8,254.3,305.4,247.4,304.8,246.2z"/>
			<path class="st12" d="M297,226c0,0-8.4,6.9-5.4,16.3"/>
		</g>
	</g>
</g>
<g id="BACKGROUND">
</g>
</svg>
